<?xml version="1.0" encoding="UTF-8" standalone="no"?>
<!DOCTYPE svg PUBLIC "-//W3C//DTD SVG 1.1//EN"
 "http://www.w3.org/Graphics/SVG/1.1/DTD/svg11.dtd">
<!-- Generated by graphviz version 2.47.0 (20210316.0004)
 -->
<!-- Title: dependencies Pages: 1 -->
<svg width="1248pt" height="284pt"
 viewBox="0.00 0.00 1248.00 284.00" xmlns="http://www.w3.org/2000/svg" xmlns:xlink="http://www.w3.org/1999/xlink">
<g id="graph0" class="graph" transform="scale(1 1) rotate(0) translate(4 280)">
<title>dependencies</title>
<polygon fill="white" stroke="transparent" points="-4,4 -4,-280 1244,-280 1244,4 -4,4"/>
<text text-anchor="start" x="599.01" y="-42.4" font-family="Times-12" font-weight="bold" font-size="14.00">Legend</text>
<polygon fill="#ffffb3" stroke="transparent" points="386,-10 386,-30 406,-30 406,-10 386,-10"/>
<text text-anchor="start" x="409.63" y="-15.4" font-family="Times-12" font-size="14.00"> &#160;Declarations</text>
<polygon fill="#8dd3c7" stroke="transparent" points="499,-10 499,-30 519,-30 519,-10 499,-10"/>
<text text-anchor="start" x="522.73" y="-15.4" font-family="Times-12" font-size="14.00"> &#160;Module</text>
<polygon fill="#80b1d3" stroke="transparent" points="585,-10 585,-30 605,-30 605,-10 585,-10"/>
<text text-anchor="start" x="608.78" y="-15.4" font-family="Times-12" font-size="14.00"> &#160;Bootstrap</text>
<polygon fill="#fdb462" stroke="transparent" points="682,-10 682,-30 702,-30 702,-10 682,-10"/>
<text text-anchor="start" x="705.67" y="-15.4" font-family="Times-12" font-size="14.00"> &#160;Providers</text>
<polygon fill="#fb8072" stroke="transparent" points="778,-10 778,-30 798,-30 798,-10 778,-10"/>
<text text-anchor="start" x="801.73" y="-15.4" font-family="Times-12" font-size="14.00"> &#160;Exports</text>
<g id="clust1" class="cluster">
<title>cluster_FormulariosModule</title>
<polygon fill="none" stroke="black" stroke-dasharray="1,5" points="8,-70 8,-268 1232,-268 1232,-70 8,-70"/>
</g>
<g id="clust2" class="cluster">
<title>cluster_FormulariosModule_declarations</title>
<polygon fill="none" stroke="black" points="30,-78 30,-130 1211,-130 1211,-78 30,-78"/>
</g>
<g id="clust11" class="cluster">
<title>cluster_FormulariosModule_exports</title>
<polygon fill="none" stroke="black" points="16,-208 16,-260 1224,-260 1224,-208 16,-208"/>
</g>
<!-- FormActivoComponent -->
<g id="node1" class="node">
<title>FormActivoComponent</title>
<polygon fill="#ffffb3" stroke="black" points="1202.77,-122 1053.23,-122 1053.23,-86 1202.77,-86 1202.77,-122"/>
<text text-anchor="middle" x="1128" y="-99.8" font-family="Times,serif" font-size="14.00">FormActivoComponent</text>
</g>
<!-- FormulariosModule -->
<g id="node8" class="node">
<title>FormulariosModule</title>
<polygon fill="#8dd3c7" stroke="black" points="696.98,-187 693.98,-191 672.98,-191 669.98,-187 569.02,-187 569.02,-151 696.98,-151 696.98,-187"/>
<text text-anchor="middle" x="633" y="-164.8" font-family="Times,serif" font-size="14.00">FormulariosModule</text>
</g>
<!-- FormActivoComponent&#45;&gt;FormulariosModule -->
<g id="edge1" class="edge">
<title>FormActivoComponent&#45;&gt;FormulariosModule</title>
<path fill="none" stroke="black" d="M1057.74,-122.22C1057.74,-140.83 1057.74,-167 1057.74,-167 1057.74,-167 707.05,-167 707.05,-167"/>
<polygon fill="black" stroke="black" points="707.05,-163.5 697.05,-167 707.05,-170.5 707.05,-163.5"/>
</g>
<!-- FormEdificioComponent -->
<g id="node2" class="node">
<title>FormEdificioComponent</title>
<polygon fill="#ffffb3" stroke="black" points="1035.27,-122 878.73,-122 878.73,-86 1035.27,-86 1035.27,-122"/>
<text text-anchor="middle" x="957" y="-99.8" font-family="Times,serif" font-size="14.00">FormEdificioComponent</text>
</g>
<!-- FormEdificioComponent&#45;&gt;FormulariosModule -->
<g id="edge2" class="edge">
<title>FormEdificioComponent&#45;&gt;FormulariosModule</title>
<path fill="none" stroke="black" d="M984.88,-122.03C984.88,-139.06 984.88,-162 984.88,-162 984.88,-162 707.13,-162 707.13,-162"/>
<polygon fill="black" stroke="black" points="707.13,-158.5 697.13,-162 707.13,-165.5 707.13,-158.5"/>
</g>
<!-- FormPisoComponent -->
<g id="node3" class="node">
<title>FormPisoComponent</title>
<polygon fill="#ffffb3" stroke="black" points="860.78,-122 725.22,-122 725.22,-86 860.78,-86 860.78,-122"/>
<text text-anchor="middle" x="793" y="-99.8" font-family="Times,serif" font-size="14.00">FormPisoComponent</text>
</g>
<!-- FormPisoComponent&#45;&gt;FormulariosModule -->
<g id="edge3" class="edge">
<title>FormPisoComponent&#45;&gt;FormulariosModule</title>
<path fill="none" stroke="black" d="M816.05,-122.24C816.05,-137.57 816.05,-157 816.05,-157 816.05,-157 707.02,-157 707.02,-157"/>
<polygon fill="black" stroke="black" points="707.02,-153.5 697.02,-157 707.02,-160.5 707.02,-153.5"/>
</g>
<!-- FormSectorComponent -->
<g id="node4" class="node">
<title>FormSectorComponent</title>
<polygon fill="#ffffb3" stroke="black" points="706.93,-122 559.07,-122 559.07,-86 706.93,-86 706.93,-122"/>
<text text-anchor="middle" x="633" y="-99.8" font-family="Times,serif" font-size="14.00">FormSectorComponent</text>
</g>
<!-- FormSectorComponent&#45;&gt;FormulariosModule -->
<g id="edge4" class="edge">
<title>FormSectorComponent&#45;&gt;FormulariosModule</title>
<path fill="none" stroke="black" d="M633,-122.11C633,-122.11 633,-140.99 633,-140.99"/>
<polygon fill="black" stroke="black" points="629.5,-140.99 633,-150.99 636.5,-140.99 629.5,-140.99"/>
</g>
<!-- FormTareasComponent -->
<g id="node5" class="node">
<title>FormTareasComponent</title>
<polygon fill="#ffffb3" stroke="black" points="541.47,-122 392.53,-122 392.53,-86 541.47,-86 541.47,-122"/>
<text text-anchor="middle" x="467" y="-99.8" font-family="Times,serif" font-size="14.00">FormTareasComponent</text>
</g>
<!-- FormTareasComponent&#45;&gt;FormulariosModule -->
<g id="edge5" class="edge">
<title>FormTareasComponent&#45;&gt;FormulariosModule</title>
<path fill="none" stroke="black" d="M490.33,-122.24C490.33,-137.57 490.33,-157 490.33,-157 490.33,-157 558.76,-157 558.76,-157"/>
<polygon fill="black" stroke="black" points="558.76,-160.5 568.76,-157 558.76,-153.5 558.76,-160.5"/>
</g>
<!-- FormUbicacionComponent -->
<g id="node6" class="node">
<title>FormUbicacionComponent</title>
<polygon fill="#ffffb3" stroke="black" points="374.7,-122 205.3,-122 205.3,-86 374.7,-86 374.7,-122"/>
<text text-anchor="middle" x="290" y="-99.8" font-family="Times,serif" font-size="14.00">FormUbicacionComponent</text>
</g>
<!-- FormUbicacionComponent&#45;&gt;FormulariosModule -->
<g id="edge6" class="edge">
<title>FormUbicacionComponent&#45;&gt;FormulariosModule</title>
<path fill="none" stroke="black" d="M314.03,-122.03C314.03,-139.06 314.03,-162 314.03,-162 314.03,-162 558.84,-162 558.84,-162"/>
<polygon fill="black" stroke="black" points="558.84,-165.5 568.84,-162 558.84,-158.5 558.84,-165.5"/>
</g>
<!-- FormulariosComponent -->
<g id="node7" class="node">
<title>FormulariosComponent</title>
<polygon fill="#ffffb3" stroke="black" points="187.77,-122 38.23,-122 38.23,-86 187.77,-86 187.77,-122"/>
<text text-anchor="middle" x="113" y="-99.8" font-family="Times,serif" font-size="14.00">FormulariosComponent</text>
</g>
<!-- FormulariosComponent&#45;&gt;FormulariosModule -->
<g id="edge7" class="edge">
<title>FormulariosComponent&#45;&gt;FormulariosModule</title>
<path fill="none" stroke="black" d="M182.76,-122.22C182.76,-140.83 182.76,-167 182.76,-167 182.76,-167 558.97,-167 558.97,-167"/>
<polygon fill="black" stroke="black" points="558.97,-170.5 568.97,-167 558.97,-163.5 558.97,-170.5"/>
</g>
<!-- FormActivoComponent  -->
<g id="node9" class="node">
<title>FormActivoComponent </title>
<polygon fill="#fb8072" stroke="black" points="1215.77,-252 1062.23,-252 1062.23,-216 1215.77,-216 1215.77,-252"/>
<text text-anchor="middle" x="1139" y="-229.8" font-family="Times,serif" font-size="14.00">FormActivoComponent </text>
</g>
<!-- FormulariosModule&#45;&gt;FormActivoComponent  -->
<g id="edge8" class="edge">
<title>FormulariosModule&#45;&gt;FormActivoComponent </title>
<path fill="none" stroke="black" stroke-dasharray="5,2" d="M697.04,-172C831.86,-172 1132.62,-172 1132.62,-172 1132.62,-172 1132.62,-205.73 1132.62,-205.73"/>
<polygon fill="black" stroke="black" points="1129.13,-205.73 1132.62,-215.73 1136.13,-205.73 1129.13,-205.73"/>
</g>
<!-- FormEdificioComponent  -->
<g id="node10" class="node">
<title>FormEdificioComponent </title>
<polygon fill="#fb8072" stroke="black" points="1044.27,-252 883.73,-252 883.73,-216 1044.27,-216 1044.27,-252"/>
<text text-anchor="middle" x="964" y="-229.8" font-family="Times,serif" font-size="14.00">FormEdificioComponent </text>
</g>
<!-- FormulariosModule&#45;&gt;FormEdificioComponent  -->
<g id="edge9" class="edge">
<title>FormulariosModule&#45;&gt;FormEdificioComponent </title>
<path fill="none" stroke="black" stroke-dasharray="5,2" d="M697.28,-177C785.79,-177 934.37,-177 934.37,-177 934.37,-177 934.37,-205.96 934.37,-205.96"/>
<polygon fill="black" stroke="black" points="930.87,-205.96 934.37,-215.96 937.87,-205.96 930.87,-205.96"/>
</g>
<!-- FormPisoComponent  -->
<g id="node11" class="node">
<title>FormPisoComponent </title>
<polygon fill="#fb8072" stroke="black" points="865.78,-252 726.22,-252 726.22,-216 865.78,-216 865.78,-252"/>
<text text-anchor="middle" x="796" y="-229.8" font-family="Times,serif" font-size="14.00">FormPisoComponent </text>
</g>
<!-- FormulariosModule&#45;&gt;FormPisoComponent  -->
<g id="edge10" class="edge">
<title>FormulariosModule&#45;&gt;FormPisoComponent </title>
<path fill="none" stroke="black" stroke-dasharray="5,2" d="M697.25,-182C733.34,-182 771.2,-182 771.2,-182 771.2,-182 771.2,-205.81 771.2,-205.81"/>
<polygon fill="black" stroke="black" points="767.7,-205.81 771.2,-215.81 774.7,-205.81 767.7,-205.81"/>
</g>
<!-- FormSectorComponent  -->
<g id="node12" class="node">
<title>FormSectorComponent </title>
<polygon fill="#fb8072" stroke="black" points="708.43,-252 557.57,-252 557.57,-216 708.43,-216 708.43,-252"/>
<text text-anchor="middle" x="633" y="-229.8" font-family="Times,serif" font-size="14.00">FormSectorComponent </text>
</g>
<!-- FormulariosModule&#45;&gt;FormSectorComponent  -->
<g id="edge11" class="edge">
<title>FormulariosModule&#45;&gt;FormSectorComponent </title>
<path fill="none" stroke="black" stroke-dasharray="5,2" d="M633,-187.11C633,-187.11 633,-205.99 633,-205.99"/>
<polygon fill="black" stroke="black" points="629.5,-205.99 633,-215.99 636.5,-205.99 629.5,-205.99"/>
</g>
<!-- FormTareasComponent  -->
<g id="node13" class="node">
<title>FormTareasComponent </title>
<polygon fill="#fb8072" stroke="black" points="539.47,-252 386.53,-252 386.53,-216 539.47,-216 539.47,-252"/>
<text text-anchor="middle" x="463" y="-229.8" font-family="Times,serif" font-size="14.00">FormTareasComponent </text>
</g>
<!-- FormulariosModule&#45;&gt;FormTareasComponent  -->
<g id="edge12" class="edge">
<title>FormulariosModule&#45;&gt;FormTareasComponent </title>
<path fill="none" stroke="black" stroke-dasharray="5,2" d="M568.94,-182C513.25,-182 441.42,-182 441.42,-182 441.42,-182 441.42,-205.81 441.42,-205.81"/>
<polygon fill="black" stroke="black" points="437.92,-205.81 441.42,-215.81 444.92,-205.81 437.92,-205.81"/>
</g>
<!-- FormUbicacionComponent  -->
<g id="node14" class="node">
<title>FormUbicacionComponent </title>
<polygon fill="#fb8072" stroke="black" points="368.2,-252 195.8,-252 195.8,-216 368.2,-216 368.2,-252"/>
<text text-anchor="middle" x="282" y="-229.8" font-family="Times,serif" font-size="14.00">FormUbicacionComponent </text>
</g>
<!-- FormulariosModule&#45;&gt;FormUbicacionComponent  -->
<g id="edge13" class="edge">
<title>FormulariosModule&#45;&gt;FormUbicacionComponent </title>
<path fill="none" stroke="black" stroke-dasharray="5,2" d="M568.83,-177C462.1,-177 259.72,-177 259.72,-177 259.72,-177 259.72,-205.96 259.72,-205.96"/>
<polygon fill="black" stroke="black" points="256.22,-205.96 259.72,-215.96 263.22,-205.96 256.22,-205.96"/>
</g>
<!-- FormulariosComponent  -->
<g id="node15" class="node">
<title>FormulariosComponent </title>
<polygon fill="#fb8072" stroke="black" points="177.77,-252 24.23,-252 24.23,-216 177.77,-216 177.77,-252"/>
<text text-anchor="middle" x="101" y="-229.8" font-family="Times,serif" font-size="14.00">FormulariosComponent </text>
</g>
<!-- FormulariosModule&#45;&gt;FormulariosComponent  -->
<g id="edge14" class="edge">
<title>FormulariosModule&#45;&gt;FormulariosComponent </title>
<path fill="none" stroke="black" stroke-dasharray="5,2" d="M568.87,-172C428.79,-172 107.88,-172 107.88,-172 107.88,-172 107.88,-205.73 107.88,-205.73"/>
<polygon fill="black" stroke="black" points="104.38,-205.73 107.87,-215.73 111.38,-205.73 104.38,-205.73"/>
</g>
</g>
</svg>
