<?xml version="1.0" encoding="UTF-8" standalone="no"?>
<!DOCTYPE svg PUBLIC "-//W3C//DTD SVG 1.1//EN"
 "http://www.w3.org/Graphics/SVG/1.1/DTD/svg11.dtd">
<!-- Generated by graphviz version 2.47.0 (20210316.0004)
 -->
<!-- Title: dependencies Pages: 1 -->
<svg width="4637pt" height="284pt"
 viewBox="0.00 0.00 4637.00 284.00" xmlns="http://www.w3.org/2000/svg" xmlns:xlink="http://www.w3.org/1999/xlink">
<g id="graph0" class="graph" transform="scale(1 1) rotate(0) translate(4 280)">
<title>dependencies</title>
<polygon fill="white" stroke="transparent" points="-4,4 -4,-280 4633,-280 4633,4 -4,4"/>
<text text-anchor="start" x="2293.51" y="-42.4" font-family="Times-12" font-weight="bold" font-size="14.00">Legend</text>
<polygon fill="#ffffb3" stroke="transparent" points="2080.5,-10 2080.5,-30 2100.5,-30 2100.5,-10 2080.5,-10"/>
<text text-anchor="start" x="2104.13" y="-15.4" font-family="Times-12" font-size="14.00"> &#160;Declarations</text>
<polygon fill="#8dd3c7" stroke="transparent" points="2193.5,-10 2193.5,-30 2213.5,-30 2213.5,-10 2193.5,-10"/>
<text text-anchor="start" x="2217.23" y="-15.4" font-family="Times-12" font-size="14.00"> &#160;Module</text>
<polygon fill="#80b1d3" stroke="transparent" points="2279.5,-10 2279.5,-30 2299.5,-30 2299.5,-10 2279.5,-10"/>
<text text-anchor="start" x="2303.28" y="-15.4" font-family="Times-12" font-size="14.00"> &#160;Bootstrap</text>
<polygon fill="#fdb462" stroke="transparent" points="2376.5,-10 2376.5,-30 2396.5,-30 2396.5,-10 2376.5,-10"/>
<text text-anchor="start" x="2400.17" y="-15.4" font-family="Times-12" font-size="14.00"> &#160;Providers</text>
<polygon fill="#fb8072" stroke="transparent" points="2472.5,-10 2472.5,-30 2492.5,-30 2492.5,-10 2472.5,-10"/>
<text text-anchor="start" x="2496.23" y="-15.4" font-family="Times-12" font-size="14.00"> &#160;Exports</text>
<g id="clust1" class="cluster">
<title>cluster_OrdenTrabajoModule</title>
<polygon fill="none" stroke="black" stroke-dasharray="1,5" points="8,-70 8,-268 4621,-268 4621,-70 8,-70"/>
</g>
<g id="clust2" class="cluster">
<title>cluster_OrdenTrabajoModule_declarations</title>
<polygon fill="none" stroke="black" points="16,-78 16,-130 4613,-130 4613,-78 16,-78"/>
</g>
<g id="clust29" class="cluster">
<title>cluster_OrdenTrabajoModule_exports</title>
<polygon fill="none" stroke="black" points="2057,-208 2057,-260 2355,-260 2355,-208 2057,-208"/>
</g>
<!-- OtBannerChicoComponent -->
<g id="node1" class="node">
<title>OtBannerChicoComponent</title>
<polygon fill="#ffffb3" stroke="black" points="4604.7,-122 4435.3,-122 4435.3,-86 4604.7,-86 4604.7,-122"/>
<text text-anchor="middle" x="4520" y="-99.8" font-family="Times,serif" font-size="14.00">OtBannerChicoComponent</text>
</g>
<!-- OrdenTrabajoModule -->
<g id="node26" class="node">
<title>OrdenTrabajoModule</title>
<polygon fill="#8dd3c7" stroke="black" points="2257.06,-187 2254.06,-191 2233.06,-191 2230.06,-187 2118.94,-187 2118.94,-151 2257.06,-151 2257.06,-187"/>
<text text-anchor="middle" x="2188" y="-164.8" font-family="Times,serif" font-size="14.00">OrdenTrabajoModule</text>
</g>
<!-- OtBannerChicoComponent&#45;&gt;OrdenTrabajoModule -->
<g id="edge1" class="edge">
<title>OtBannerChicoComponent&#45;&gt;OrdenTrabajoModule</title>
<path fill="none" stroke="black" d="M4520,-122.38C4520,-146.28 4520,-185 4520,-185 4520,-185 2267.16,-185 2267.16,-185"/>
<polygon fill="black" stroke="black" points="2267.16,-181.5 2257.16,-185 2267.16,-188.5 2267.16,-181.5"/>
</g>
<!-- OtBannerComponent -->
<g id="node2" class="node">
<title>OtBannerComponent</title>
<polygon fill="#ffffb3" stroke="black" points="4417.76,-122 4282.24,-122 4282.24,-86 4417.76,-86 4417.76,-122"/>
<text text-anchor="middle" x="4350" y="-99.8" font-family="Times,serif" font-size="14.00">OtBannerComponent</text>
</g>
<!-- OtBannerComponent&#45;&gt;OrdenTrabajoModule -->
<g id="edge2" class="edge">
<title>OtBannerComponent&#45;&gt;OrdenTrabajoModule</title>
<path fill="none" stroke="black" d="M4350,-122.09C4350,-145.13 4350,-182 4350,-182 4350,-182 2267.18,-182 2267.18,-182"/>
<polygon fill="black" stroke="black" points="2267.18,-178.5 2257.18,-182 2267.18,-185.5 2267.18,-178.5"/>
</g>
<!-- OtBannerFechaComponent -->
<g id="node3" class="node">
<title>OtBannerFechaComponent</title>
<polygon fill="#ffffb3" stroke="black" points="4264.68,-122 4095.32,-122 4095.32,-86 4264.68,-86 4264.68,-122"/>
<text text-anchor="middle" x="4180" y="-99.8" font-family="Times,serif" font-size="14.00">OtBannerFechaComponent</text>
</g>
<!-- OtBannerFechaComponent&#45;&gt;OrdenTrabajoModule -->
<g id="edge3" class="edge">
<title>OtBannerFechaComponent&#45;&gt;OrdenTrabajoModule</title>
<path fill="none" stroke="black" d="M4180,-122.16C4180,-144.35 4180,-179 4180,-179 4180,-179 2267.15,-179 2267.15,-179"/>
<polygon fill="black" stroke="black" points="2267.15,-175.5 2257.15,-179 2267.15,-182.5 2267.15,-175.5"/>
</g>
<!-- OtBannerLaborComponent -->
<g id="node4" class="node">
<title>OtBannerLaborComponent</title>
<polygon fill="#ffffb3" stroke="black" points="4077.68,-122 3908.32,-122 3908.32,-86 4077.68,-86 4077.68,-122"/>
<text text-anchor="middle" x="3993" y="-99.8" font-family="Times,serif" font-size="14.00">OtBannerLaborComponent</text>
</g>
<!-- OtBannerLaborComponent&#45;&gt;OrdenTrabajoModule -->
<g id="edge4" class="edge">
<title>OtBannerLaborComponent&#45;&gt;OrdenTrabajoModule</title>
<path fill="none" stroke="black" d="M3993,-122.17C3993,-143.5 3993,-176 3993,-176 3993,-176 2267.1,-176 2267.1,-176"/>
<polygon fill="black" stroke="black" points="2267.1,-172.5 2257.1,-176 2267.1,-179.5 2267.1,-172.5"/>
</g>
<!-- OtCategoriasBannerComponent -->
<g id="node5" class="node">
<title>OtCategoriasBannerComponent</title>
<polygon fill="#ffffb3" stroke="black" points="3890.62,-122 3695.38,-122 3695.38,-86 3890.62,-86 3890.62,-122"/>
<text text-anchor="middle" x="3793" y="-99.8" font-family="Times,serif" font-size="14.00">OtCategoriasBannerComponent</text>
</g>
<!-- OtCategoriasBannerComponent&#45;&gt;OrdenTrabajoModule -->
<g id="edge5" class="edge">
<title>OtCategoriasBannerComponent&#45;&gt;OrdenTrabajoModule</title>
<path fill="none" stroke="black" d="M3793,-122.03C3793,-142.77 3793,-174 3793,-174 3793,-174 2267.22,-174 2267.22,-174"/>
<polygon fill="black" stroke="black" points="2267.22,-170.5 2257.22,-174 2267.22,-177.5 2267.22,-170.5"/>
</g>
<!-- OtComentariosComponent -->
<g id="node6" class="node">
<title>OtComentariosComponent</title>
<polygon fill="#ffffb3" stroke="black" points="3677.37,-122 3510.63,-122 3510.63,-86 3677.37,-86 3677.37,-122"/>
<text text-anchor="middle" x="3594" y="-99.8" font-family="Times,serif" font-size="14.00">OtComentariosComponent</text>
</g>
<!-- OtComentariosComponent&#45;&gt;OrdenTrabajoModule -->
<g id="edge6" class="edge">
<title>OtComentariosComponent&#45;&gt;OrdenTrabajoModule</title>
<path fill="none" stroke="black" d="M3594,-122.31C3594,-142.15 3594,-171 3594,-171 3594,-171 2267.24,-171 2267.24,-171"/>
<polygon fill="black" stroke="black" points="2267.24,-167.5 2257.24,-171 2267.24,-174.5 2267.24,-167.5"/>
</g>
<!-- OtComentariosContenedorQrComponent -->
<g id="node7" class="node">
<title>OtComentariosContenedorQrComponent</title>
<polygon fill="#ffffb3" stroke="black" points="3492.46,-122 3245.54,-122 3245.54,-86 3492.46,-86 3492.46,-122"/>
<text text-anchor="middle" x="3369" y="-99.8" font-family="Times,serif" font-size="14.00">OtComentariosContenedorQrComponent</text>
</g>
<!-- OtComentariosContenedorQrComponent&#45;&gt;OrdenTrabajoModule -->
<g id="edge7" class="edge">
<title>OtComentariosContenedorQrComponent&#45;&gt;OrdenTrabajoModule</title>
<path fill="none" stroke="black" d="M3369,-122.17C3369,-141.09 3369,-168 3369,-168 3369,-168 2267.03,-168 2267.03,-168"/>
<polygon fill="black" stroke="black" points="2267.03,-164.5 2257.03,-168 2267.03,-171.5 2267.03,-164.5"/>
</g>
<!-- OtComentariosQrComponent -->
<g id="node8" class="node">
<title>OtComentariosQrComponent</title>
<polygon fill="#ffffb3" stroke="black" points="3227.64,-122 3046.36,-122 3046.36,-86 3227.64,-86 3227.64,-122"/>
<text text-anchor="middle" x="3137" y="-99.8" font-family="Times,serif" font-size="14.00">OtComentariosQrComponent</text>
</g>
<!-- OtComentariosQrComponent&#45;&gt;OrdenTrabajoModule -->
<g id="edge8" class="edge">
<title>OtComentariosQrComponent&#45;&gt;OrdenTrabajoModule</title>
<path fill="none" stroke="black" d="M3137,-122.3C3137,-140.27 3137,-165 3137,-165 3137,-165 2267.4,-165 2267.4,-165"/>
<polygon fill="black" stroke="black" points="2267.4,-161.5 2257.4,-165 2267.4,-168.5 2267.4,-161.5"/>
</g>
<!-- OtFechaImpresionComponent -->
<g id="node9" class="node">
<title>OtFechaImpresionComponent</title>
<polygon fill="#ffffb3" stroke="black" points="3027.52,-122 2842.48,-122 2842.48,-86 3027.52,-86 3027.52,-122"/>
<text text-anchor="middle" x="2935" y="-99.8" font-family="Times,serif" font-size="14.00">OtFechaImpresionComponent</text>
</g>
<!-- OtFechaImpresionComponent&#45;&gt;OrdenTrabajoModule -->
<g id="edge9" class="edge">
<title>OtFechaImpresionComponent&#45;&gt;OrdenTrabajoModule</title>
<path fill="none" stroke="black" d="M2935,-122.02C2935,-139.37 2935,-163 2935,-163 2935,-163 2267.27,-163 2267.27,-163"/>
<polygon fill="black" stroke="black" points="2267.27,-159.5 2257.27,-163 2267.27,-166.5 2267.27,-159.5"/>
</g>
<!-- OtFechaRealizadaComponent -->
<g id="node10" class="node">
<title>OtFechaRealizadaComponent</title>
<polygon fill="#ffffb3" stroke="black" points="2823.95,-122 2640.05,-122 2640.05,-86 2823.95,-86 2823.95,-122"/>
<text text-anchor="middle" x="2732" y="-99.8" font-family="Times,serif" font-size="14.00">OtFechaRealizadaComponent</text>
</g>
<!-- OtFechaRealizadaComponent&#45;&gt;OrdenTrabajoModule -->
<g id="edge10" class="edge">
<title>OtFechaRealizadaComponent&#45;&gt;OrdenTrabajoModule</title>
<path fill="none" stroke="black" d="M2732,-122.03C2732,-138.4 2732,-160 2732,-160 2732,-160 2267.17,-160 2267.17,-160"/>
<polygon fill="black" stroke="black" points="2267.17,-156.5 2257.17,-160 2267.17,-163.5 2267.17,-156.5"/>
</g>
<!-- OtInfoActivoComponent -->
<g id="node11" class="node">
<title>OtInfoActivoComponent</title>
<polygon fill="#ffffb3" stroke="black" points="2622.25,-122 2465.75,-122 2465.75,-86 2622.25,-86 2622.25,-122"/>
<text text-anchor="middle" x="2544" y="-99.8" font-family="Times,serif" font-size="14.00">OtInfoActivoComponent</text>
</g>
<!-- OtInfoActivoComponent&#45;&gt;OrdenTrabajoModule -->
<g id="edge11" class="edge">
<title>OtInfoActivoComponent&#45;&gt;OrdenTrabajoModule</title>
<path fill="none" stroke="black" d="M2544,-122.24C2544,-137.57 2544,-157 2544,-157 2544,-157 2267.06,-157 2267.06,-157"/>
<polygon fill="black" stroke="black" points="2267.06,-153.5 2257.06,-157 2267.06,-160.5 2267.06,-153.5"/>
</g>
<!-- OtInfoCodigoComponent -->
<g id="node12" class="node">
<title>OtInfoCodigoComponent</title>
<polygon fill="#ffffb3" stroke="black" points="2447.88,-122 2288.12,-122 2288.12,-86 2447.88,-86 2447.88,-122"/>
<text text-anchor="middle" x="2368" y="-99.8" font-family="Times,serif" font-size="14.00">OtInfoCodigoComponent</text>
</g>
<!-- OtInfoCodigoComponent&#45;&gt;OrdenTrabajoModule -->
<g id="edge12" class="edge">
<title>OtInfoCodigoComponent&#45;&gt;OrdenTrabajoModule</title>
<path fill="none" stroke="black" d="M2317.73,-122.05C2317.73,-136.37 2317.73,-154 2317.73,-154 2317.73,-154 2267.04,-154 2267.04,-154"/>
<polygon fill="black" stroke="black" points="2267.04,-150.5 2257.04,-154 2267.04,-157.5 2267.04,-150.5"/>
</g>
<!-- OtInfoEdificioComponent -->
<g id="node13" class="node">
<title>OtInfoEdificioComponent</title>
<polygon fill="#ffffb3" stroke="black" points="2269.75,-122 2106.25,-122 2106.25,-86 2269.75,-86 2269.75,-122"/>
<text text-anchor="middle" x="2188" y="-99.8" font-family="Times,serif" font-size="14.00">OtInfoEdificioComponent</text>
</g>
<!-- OtInfoEdificioComponent&#45;&gt;OrdenTrabajoModule -->
<g id="edge13" class="edge">
<title>OtInfoEdificioComponent&#45;&gt;OrdenTrabajoModule</title>
<path fill="none" stroke="black" d="M2188,-122.11C2188,-122.11 2188,-140.99 2188,-140.99"/>
<polygon fill="black" stroke="black" points="2184.5,-140.99 2188,-150.99 2191.5,-140.99 2184.5,-140.99"/>
</g>
<!-- OtInfoNComponent -->
<g id="node14" class="node">
<title>OtInfoNComponent</title>
<polygon fill="#ffffb3" stroke="black" points="2088.26,-122 1959.74,-122 1959.74,-86 2088.26,-86 2088.26,-122"/>
<text text-anchor="middle" x="2024" y="-99.8" font-family="Times,serif" font-size="14.00">OtInfoNComponent</text>
</g>
<!-- OtInfoNComponent&#45;&gt;OrdenTrabajoModule -->
<g id="edge14" class="edge">
<title>OtInfoNComponent&#45;&gt;OrdenTrabajoModule</title>
<path fill="none" stroke="black" d="M2076.76,-122.05C2076.76,-136.37 2076.76,-154 2076.76,-154 2076.76,-154 2108.81,-154 2108.81,-154"/>
<polygon fill="black" stroke="black" points="2108.81,-157.5 2118.81,-154 2108.81,-150.5 2108.81,-157.5"/>
</g>
<!-- OtInfoPisoComponent -->
<g id="node15" class="node">
<title>OtInfoPisoComponent</title>
<polygon fill="#ffffb3" stroke="black" points="1941.27,-122 1798.73,-122 1798.73,-86 1941.27,-86 1941.27,-122"/>
<text text-anchor="middle" x="1870" y="-99.8" font-family="Times,serif" font-size="14.00">OtInfoPisoComponent</text>
</g>
<!-- OtInfoPisoComponent&#45;&gt;OrdenTrabajoModule -->
<g id="edge15" class="edge">
<title>OtInfoPisoComponent&#45;&gt;OrdenTrabajoModule</title>
<path fill="none" stroke="black" d="M1870,-122.24C1870,-137.57 1870,-157 1870,-157 1870,-157 2108.61,-157 2108.61,-157"/>
<polygon fill="black" stroke="black" points="2108.61,-160.5 2118.61,-157 2108.61,-153.5 2108.61,-160.5"/>
</g>
<!-- OtInfoSectorComponent -->
<g id="node16" class="node">
<title>OtInfoSectorComponent</title>
<polygon fill="#ffffb3" stroke="black" points="1780.41,-122 1625.59,-122 1625.59,-86 1780.41,-86 1780.41,-122"/>
<text text-anchor="middle" x="1703" y="-99.8" font-family="Times,serif" font-size="14.00">OtInfoSectorComponent</text>
</g>
<!-- OtInfoSectorComponent&#45;&gt;OrdenTrabajoModule -->
<g id="edge16" class="edge">
<title>OtInfoSectorComponent&#45;&gt;OrdenTrabajoModule</title>
<path fill="none" stroke="black" d="M1703,-122.03C1703,-138.4 1703,-160 1703,-160 1703,-160 2108.77,-160 2108.77,-160"/>
<polygon fill="black" stroke="black" points="2108.77,-163.5 2118.77,-160 2108.77,-156.5 2108.77,-163.5"/>
</g>
<!-- OtInstruccionesBannerComponent -->
<g id="node17" class="node">
<title>OtInstruccionesBannerComponent</title>
<polygon fill="#ffffb3" stroke="black" points="1608.39,-122 1397.61,-122 1397.61,-86 1608.39,-86 1608.39,-122"/>
<text text-anchor="middle" x="1503" y="-99.8" font-family="Times,serif" font-size="14.00">OtInstruccionesBannerComponent</text>
</g>
<!-- OtInstruccionesBannerComponent&#45;&gt;OrdenTrabajoModule -->
<g id="edge17" class="edge">
<title>OtInstruccionesBannerComponent&#45;&gt;OrdenTrabajoModule</title>
<path fill="none" stroke="black" d="M1503,-122.02C1503,-139.37 1503,-163 1503,-163 1503,-163 2108.87,-163 2108.87,-163"/>
<polygon fill="black" stroke="black" points="2108.87,-166.5 2118.87,-163 2108.87,-159.5 2108.87,-166.5"/>
</g>
<!-- OtInstruccionesTituloComponent -->
<g id="node18" class="node">
<title>OtInstruccionesTituloComponent</title>
<polygon fill="#ffffb3" stroke="black" points="1380.19,-122 1175.81,-122 1175.81,-86 1380.19,-86 1380.19,-122"/>
<text text-anchor="middle" x="1278" y="-99.8" font-family="Times,serif" font-size="14.00">OtInstruccionesTituloComponent</text>
</g>
<!-- OtInstruccionesTituloComponent&#45;&gt;OrdenTrabajoModule -->
<g id="edge18" class="edge">
<title>OtInstruccionesTituloComponent&#45;&gt;OrdenTrabajoModule</title>
<path fill="none" stroke="black" d="M1278,-122.3C1278,-140.27 1278,-165 1278,-165 1278,-165 2108.86,-165 2108.86,-165"/>
<polygon fill="black" stroke="black" points="2108.86,-168.5 2118.86,-165 2108.86,-161.5 2108.86,-168.5"/>
</g>
<!-- OtLaborComponent -->
<g id="node19" class="node">
<title>OtLaborComponent</title>
<polygon fill="#ffffb3" stroke="black" points="1158.26,-122 1029.74,-122 1029.74,-86 1158.26,-86 1158.26,-122"/>
<text text-anchor="middle" x="1094" y="-99.8" font-family="Times,serif" font-size="14.00">OtLaborComponent</text>
</g>
<!-- OtLaborComponent&#45;&gt;OrdenTrabajoModule -->
<g id="edge19" class="edge">
<title>OtLaborComponent&#45;&gt;OrdenTrabajoModule</title>
<path fill="none" stroke="black" d="M1094,-122.17C1094,-141.09 1094,-168 1094,-168 1094,-168 2108.74,-168 2108.74,-168"/>
<polygon fill="black" stroke="black" points="2108.74,-171.5 2118.74,-168 2108.74,-164.5 2108.74,-171.5"/>
</g>
<!-- OtLogoBannerComponent -->
<g id="node20" class="node">
<title>OtLogoBannerComponent</title>
<polygon fill="#ffffb3" stroke="black" points="1011.81,-122 846.19,-122 846.19,-86 1011.81,-86 1011.81,-122"/>
<text text-anchor="middle" x="929" y="-99.8" font-family="Times,serif" font-size="14.00">OtLogoBannerComponent</text>
</g>
<!-- OtLogoBannerComponent&#45;&gt;OrdenTrabajoModule -->
<g id="edge20" class="edge">
<title>OtLogoBannerComponent&#45;&gt;OrdenTrabajoModule</title>
<path fill="none" stroke="black" d="M929,-122.31C929,-142.15 929,-171 929,-171 929,-171 2108.97,-171 2108.97,-171"/>
<polygon fill="black" stroke="black" points="2108.97,-174.5 2118.97,-171 2108.97,-167.5 2108.97,-174.5"/>
</g>
<!-- OtTareaListaComponent -->
<g id="node21" class="node">
<title>OtTareaListaComponent</title>
<polygon fill="#ffffb3" stroke="black" points="828.68,-122 673.32,-122 673.32,-86 828.68,-86 828.68,-122"/>
<text text-anchor="middle" x="751" y="-99.8" font-family="Times,serif" font-size="14.00">OtTareaListaComponent</text>
</g>
<!-- OtTareaListaComponent&#45;&gt;OrdenTrabajoModule -->
<g id="edge21" class="edge">
<title>OtTareaListaComponent&#45;&gt;OrdenTrabajoModule</title>
<path fill="none" stroke="black" d="M751,-122.03C751,-142.77 751,-174 751,-174 751,-174 2108.69,-174 2108.69,-174"/>
<polygon fill="black" stroke="black" points="2108.69,-177.5 2118.69,-174 2108.69,-170.5 2108.69,-177.5"/>
</g>
<!-- OtTareaOperarioComponent -->
<g id="node22" class="node">
<title>OtTareaOperarioComponent</title>
<polygon fill="#ffffb3" stroke="black" points="655.43,-122 478.57,-122 478.57,-86 655.43,-86 655.43,-122"/>
<text text-anchor="middle" x="567" y="-99.8" font-family="Times,serif" font-size="14.00">OtTareaOperarioComponent</text>
</g>
<!-- OtTareaOperarioComponent&#45;&gt;OrdenTrabajoModule -->
<g id="edge22" class="edge">
<title>OtTareaOperarioComponent&#45;&gt;OrdenTrabajoModule</title>
<path fill="none" stroke="black" d="M567,-122.17C567,-143.5 567,-176 567,-176 567,-176 2108.87,-176 2108.87,-176"/>
<polygon fill="black" stroke="black" points="2108.87,-179.5 2118.87,-176 2108.87,-172.5 2108.87,-179.5"/>
</g>
<!-- OtTiempoComponent -->
<g id="node23" class="node">
<title>OtTiempoComponent</title>
<polygon fill="#ffffb3" stroke="black" points="460.38,-122 321.62,-122 321.62,-86 460.38,-86 460.38,-122"/>
<text text-anchor="middle" x="391" y="-99.8" font-family="Times,serif" font-size="14.00">OtTiempoComponent</text>
</g>
<!-- OtTiempoComponent&#45;&gt;OrdenTrabajoModule -->
<g id="edge23" class="edge">
<title>OtTiempoComponent&#45;&gt;OrdenTrabajoModule</title>
<path fill="none" stroke="black" d="M391,-122.16C391,-144.35 391,-179 391,-179 391,-179 2108.93,-179 2108.93,-179"/>
<polygon fill="black" stroke="black" points="2108.93,-182.5 2118.93,-179 2108.93,-175.5 2108.93,-182.5"/>
</g>
<!-- OtTituloBannerComponent -->
<g id="node24" class="node">
<title>OtTituloBannerComponent</title>
<polygon fill="#ffffb3" stroke="black" points="303.98,-122 134.02,-122 134.02,-86 303.98,-86 303.98,-122"/>
<text text-anchor="middle" x="219" y="-99.8" font-family="Times,serif" font-size="14.00">OtTituloBannerComponent</text>
</g>
<!-- OtTituloBannerComponent&#45;&gt;OrdenTrabajoModule -->
<g id="edge24" class="edge">
<title>OtTituloBannerComponent&#45;&gt;OrdenTrabajoModule</title>
<path fill="none" stroke="black" d="M219,-122.09C219,-145.13 219,-182 219,-182 219,-182 2108.79,-182 2108.79,-182"/>
<polygon fill="black" stroke="black" points="2108.79,-185.5 2118.79,-182 2108.79,-178.5 2108.79,-185.5"/>
</g>
<!-- otComponent -->
<g id="node25" class="node">
<title>otComponent</title>
<polygon fill="#ffffb3" stroke="black" points="116.22,-122 23.78,-122 23.78,-86 116.22,-86 116.22,-122"/>
<text text-anchor="middle" x="70" y="-99.8" font-family="Times,serif" font-size="14.00">otComponent</text>
</g>
<!-- otComponent&#45;&gt;OrdenTrabajoModule -->
<g id="edge25" class="edge">
<title>otComponent&#45;&gt;OrdenTrabajoModule</title>
<path fill="none" stroke="black" d="M70,-122.38C70,-146.28 70,-185 70,-185 70,-185 2108.73,-185 2108.73,-185"/>
<polygon fill="black" stroke="black" points="2108.73,-188.5 2118.73,-185 2108.73,-181.5 2108.73,-188.5"/>
</g>
<!-- OtLogoBannerComponent  -->
<g id="node27" class="node">
<title>OtLogoBannerComponent </title>
<polygon fill="#fb8072" stroke="black" points="2347.31,-252 2178.69,-252 2178.69,-216 2347.31,-216 2347.31,-252"/>
<text text-anchor="middle" x="2263" y="-229.8" font-family="Times,serif" font-size="14.00">OtLogoBannerComponent </text>
</g>
<!-- OrdenTrabajoModule&#45;&gt;OtLogoBannerComponent  -->
<g id="edge26" class="edge">
<title>OrdenTrabajoModule&#45;&gt;OtLogoBannerComponent </title>
<path fill="none" stroke="black" stroke-dasharray="5,2" d="M2217.81,-187.11C2217.81,-187.11 2217.81,-205.99 2217.81,-205.99"/>
<polygon fill="black" stroke="black" points="2214.31,-205.99 2217.81,-215.99 2221.31,-205.99 2214.31,-205.99"/>
</g>
<!-- otComponent  -->
<g id="node28" class="node">
<title>otComponent </title>
<polygon fill="#fb8072" stroke="black" points="2160.72,-252 2065.28,-252 2065.28,-216 2160.72,-216 2160.72,-252"/>
<text text-anchor="middle" x="2113" y="-229.8" font-family="Times,serif" font-size="14.00">otComponent </text>
</g>
<!-- OrdenTrabajoModule&#45;&gt;otComponent  -->
<g id="edge27" class="edge">
<title>OrdenTrabajoModule&#45;&gt;otComponent </title>
<path fill="none" stroke="black" stroke-dasharray="5,2" d="M2139.91,-187.11C2139.91,-187.11 2139.91,-205.99 2139.91,-205.99"/>
<polygon fill="black" stroke="black" points="2136.41,-205.99 2139.91,-215.99 2143.41,-205.99 2136.41,-205.99"/>
</g>
</g>
</svg>
