<?xml version="1.0" encoding="UTF-8" standalone="no"?>
<!DOCTYPE svg PUBLIC "-//W3C//DTD SVG 1.1//EN"
 "http://www.w3.org/Graphics/SVG/1.1/DTD/svg11.dtd">
<!-- Generated by graphviz version 2.47.0 (20210316.0004)
 -->
<!-- Title: dependencies Pages: 1 -->
<svg width="2261pt" height="284pt"
 viewBox="0.00 0.00 2261.00 284.00" xmlns="http://www.w3.org/2000/svg" xmlns:xlink="http://www.w3.org/1999/xlink">
<g id="graph0" class="graph" transform="scale(1 1) rotate(0) translate(4 280)">
<title>dependencies</title>
<polygon fill="white" stroke="transparent" points="-4,4 -4,-280 2257,-280 2257,4 -4,4"/>
<text text-anchor="start" x="1105.51" y="-42.4" font-family="Times-12" font-weight="bold" font-size="14.00">Legend</text>
<polygon fill="#ffffb3" stroke="transparent" points="892.5,-10 892.5,-30 912.5,-30 912.5,-10 892.5,-10"/>
<text text-anchor="start" x="916.13" y="-15.4" font-family="Times-12" font-size="14.00"> &#160;Declarations</text>
<polygon fill="#8dd3c7" stroke="transparent" points="1005.5,-10 1005.5,-30 1025.5,-30 1025.5,-10 1005.5,-10"/>
<text text-anchor="start" x="1029.23" y="-15.4" font-family="Times-12" font-size="14.00"> &#160;Module</text>
<polygon fill="#80b1d3" stroke="transparent" points="1091.5,-10 1091.5,-30 1111.5,-30 1111.5,-10 1091.5,-10"/>
<text text-anchor="start" x="1115.28" y="-15.4" font-family="Times-12" font-size="14.00"> &#160;Bootstrap</text>
<polygon fill="#fdb462" stroke="transparent" points="1188.5,-10 1188.5,-30 1208.5,-30 1208.5,-10 1188.5,-10"/>
<text text-anchor="start" x="1212.17" y="-15.4" font-family="Times-12" font-size="14.00"> &#160;Providers</text>
<polygon fill="#fb8072" stroke="transparent" points="1284.5,-10 1284.5,-30 1304.5,-30 1304.5,-10 1284.5,-10"/>
<text text-anchor="start" x="1308.23" y="-15.4" font-family="Times-12" font-size="14.00"> &#160;Exports</text>
<g id="clust1" class="cluster">
<title>cluster_AppModule</title>
<polygon fill="none" stroke="black" stroke-dasharray="1,5" points="8,-70 8,-268 2245,-268 2245,-70 8,-70"/>
</g>
<g id="clust12" class="cluster">
<title>cluster_AppModule_imports</title>
<polygon fill="none" stroke="black" points="1399,-78 1399,-130 2237,-130 2237,-78 1399,-78"/>
</g>
<g id="clust14" class="cluster">
<title>cluster_AppModule_bootstrap</title>
<polygon fill="none" stroke="black" points="1140,-208 1140,-260 1264,-260 1264,-208 1140,-208"/>
</g>
<g id="clust2" class="cluster">
<title>cluster_AppModule_declarations</title>
<polygon fill="none" stroke="black" points="16,-78 16,-130 1391,-130 1391,-78 16,-78"/>
</g>
<!-- AppComponent -->
<g id="node1" class="node">
<title>AppComponent</title>
<polygon fill="#ffffb3" stroke="black" points="1382.94,-122 1277.06,-122 1277.06,-86 1382.94,-86 1382.94,-122"/>
<text text-anchor="middle" x="1330" y="-99.8" font-family="Times,serif" font-size="14.00">AppComponent</text>
</g>
<!-- AppModule -->
<g id="node10" class="node">
<title>AppModule</title>
<polygon fill="#8dd3c7" stroke="black" points="1243.66,-187 1240.66,-191 1219.66,-191 1216.66,-187 1160.34,-187 1160.34,-151 1243.66,-151 1243.66,-187"/>
<text text-anchor="middle" x="1202" y="-164.8" font-family="Times,serif" font-size="14.00">AppModule</text>
</g>
<!-- AppComponent&#45;&gt;AppModule -->
<g id="edge1" class="edge">
<title>AppComponent&#45;&gt;AppModule</title>
<path fill="none" stroke="black" d="M1330,-122.19C1330,-137.18 1330,-156 1330,-156 1330,-156 1253.91,-156 1253.91,-156"/>
<polygon fill="black" stroke="black" points="1253.91,-152.5 1243.91,-156 1253.91,-159.5 1253.91,-152.5"/>
</g>
<!-- HomeComponent -->
<g id="node2" class="node">
<title>HomeComponent</title>
<polygon fill="#ffffb3" stroke="black" points="1259.55,-122 1144.45,-122 1144.45,-86 1259.55,-86 1259.55,-122"/>
<text text-anchor="middle" x="1202" y="-99.8" font-family="Times,serif" font-size="14.00">HomeComponent</text>
</g>
<!-- HomeComponent&#45;&gt;AppModule -->
<g id="edge2" class="edge">
<title>HomeComponent&#45;&gt;AppModule</title>
<path fill="none" stroke="black" d="M1202,-122.11C1202,-122.11 1202,-140.99 1202,-140.99"/>
<polygon fill="black" stroke="black" points="1198.5,-140.99 1202,-150.99 1205.5,-140.99 1198.5,-140.99"/>
</g>
<!-- HomeLoggedComponent -->
<g id="node3" class="node">
<title>HomeLoggedComponent</title>
<polygon fill="#ffffb3" stroke="black" points="1126.31,-122 967.69,-122 967.69,-86 1126.31,-86 1126.31,-122"/>
<text text-anchor="middle" x="1047" y="-99.8" font-family="Times,serif" font-size="14.00">HomeLoggedComponent</text>
</g>
<!-- HomeLoggedComponent&#45;&gt;AppModule -->
<g id="edge3" class="edge">
<title>HomeLoggedComponent&#45;&gt;AppModule</title>
<path fill="none" stroke="black" d="M1047,-122.19C1047,-137.18 1047,-156 1047,-156 1047,-156 1150.05,-156 1150.05,-156"/>
<polygon fill="black" stroke="black" points="1150.05,-159.5 1160.05,-156 1150.05,-152.5 1150.05,-159.5"/>
</g>
<!-- HomeOperarioComponent -->
<g id="node4" class="node">
<title>HomeOperarioComponent</title>
<polygon fill="#ffffb3" stroke="black" points="949.79,-122 784.21,-122 784.21,-86 949.79,-86 949.79,-122"/>
<text text-anchor="middle" x="867" y="-99.8" font-family="Times,serif" font-size="14.00">HomeOperarioComponent</text>
</g>
<!-- HomeOperarioComponent&#45;&gt;AppModule -->
<g id="edge4" class="edge">
<title>HomeOperarioComponent&#45;&gt;AppModule</title>
<path fill="none" stroke="black" d="M867,-122.03C867,-138.4 867,-160 867,-160 867,-160 1150.25,-160 1150.25,-160"/>
<polygon fill="black" stroke="black" points="1150.25,-163.5 1160.25,-160 1150.25,-156.5 1150.25,-163.5"/>
</g>
<!-- LoginComponent -->
<g id="node5" class="node">
<title>LoginComponent</title>
<polygon fill="#ffffb3" stroke="black" points="766.28,-122 651.72,-122 651.72,-86 766.28,-86 766.28,-122"/>
<text text-anchor="middle" x="709" y="-99.8" font-family="Times,serif" font-size="14.00">LoginComponent</text>
</g>
<!-- LoginComponent&#45;&gt;AppModule -->
<g id="edge5" class="edge">
<title>LoginComponent&#45;&gt;AppModule</title>
<path fill="none" stroke="black" d="M709,-122.3C709,-140.27 709,-165 709,-165 709,-165 1149.97,-165 1149.97,-165"/>
<polygon fill="black" stroke="black" points="1149.97,-168.5 1159.97,-165 1149.97,-161.5 1149.97,-168.5"/>
</g>
<!-- NotFoundComponent -->
<g id="node6" class="node">
<title>NotFoundComponent</title>
<polygon fill="#ffffb3" stroke="black" points="634.11,-122 495.89,-122 495.89,-86 634.11,-86 634.11,-122"/>
<text text-anchor="middle" x="565" y="-99.8" font-family="Times,serif" font-size="14.00">NotFoundComponent</text>
</g>
<!-- NotFoundComponent&#45;&gt;AppModule -->
<g id="edge6" class="edge">
<title>NotFoundComponent&#45;&gt;AppModule</title>
<path fill="none" stroke="black" d="M565,-122.11C565,-141.34 565,-169 565,-169 565,-169 1150.2,-169 1150.2,-169"/>
<polygon fill="black" stroke="black" points="1150.2,-172.5 1160.2,-169 1150.2,-165.5 1150.2,-172.5"/>
</g>
<!-- PendientesComponent -->
<g id="node7" class="node">
<title>PendientesComponent</title>
<polygon fill="#ffffb3" stroke="black" points="477.98,-122 336.02,-122 336.02,-86 477.98,-86 477.98,-122"/>
<text text-anchor="middle" x="407" y="-99.8" font-family="Times,serif" font-size="14.00">PendientesComponent</text>
</g>
<!-- PendientesComponent&#45;&gt;AppModule -->
<g id="edge7" class="edge">
<title>PendientesComponent&#45;&gt;AppModule</title>
<path fill="none" stroke="black" d="M407,-122.03C407,-142.77 407,-174 407,-174 407,-174 1150.1,-174 1150.1,-174"/>
<polygon fill="black" stroke="black" points="1150.1,-177.5 1160.1,-174 1150.1,-170.5 1150.1,-177.5"/>
</g>
<!-- RegisterComponent -->
<g id="node8" class="node">
<title>RegisterComponent</title>
<polygon fill="#ffffb3" stroke="black" points="317.98,-122 190.02,-122 190.02,-86 317.98,-86 317.98,-122"/>
<text text-anchor="middle" x="254" y="-99.8" font-family="Times,serif" font-size="14.00">RegisterComponent</text>
</g>
<!-- RegisterComponent&#45;&gt;AppModule -->
<g id="edge8" class="edge">
<title>RegisterComponent&#45;&gt;AppModule</title>
<path fill="none" stroke="black" d="M254,-122.29C254,-144.21 254,-178 254,-178 254,-178 1150.04,-178 1150.04,-178"/>
<polygon fill="black" stroke="black" points="1150.04,-181.5 1160.04,-178 1150.04,-174.5 1150.04,-181.5"/>
</g>
<!-- TerminadasComponent -->
<g id="node9" class="node">
<title>TerminadasComponent</title>
<polygon fill="#ffffb3" stroke="black" points="171.92,-122 24.08,-122 24.08,-86 171.92,-86 171.92,-122"/>
<text text-anchor="middle" x="98" y="-99.8" font-family="Times,serif" font-size="14.00">TerminadasComponent</text>
</g>
<!-- TerminadasComponent&#45;&gt;AppModule -->
<g id="edge9" class="edge">
<title>TerminadasComponent&#45;&gt;AppModule</title>
<path fill="none" stroke="black" d="M98,-122.32C98,-145.66 98,-183 98,-183 98,-183 1150.07,-183 1150.07,-183"/>
<polygon fill="black" stroke="black" points="1150.07,-186.5 1160.07,-183 1150.07,-179.5 1150.07,-186.5"/>
</g>
<!-- AppComponent  -->
<g id="node17" class="node">
<title>AppComponent </title>
<polygon fill="#80b1d3" stroke="black" points="1256.44,-252 1147.56,-252 1147.56,-216 1256.44,-216 1256.44,-252"/>
<text text-anchor="middle" x="1202" y="-229.8" font-family="Times,serif" font-size="14.00">AppComponent </text>
</g>
<!-- AppModule&#45;&gt;AppComponent  -->
<g id="edge16" class="edge">
<title>AppModule&#45;&gt;AppComponent </title>
<path fill="none" stroke="black" stroke-dasharray="1,5" d="M1202,-187.11C1202,-187.11 1202,-205.99 1202,-205.99"/>
<polygon fill="black" stroke="black" points="1198.5,-205.99 1202,-215.99 1205.5,-205.99 1198.5,-205.99"/>
</g>
<!-- AppRoutingModule -->
<g id="node11" class="node">
<title>AppRoutingModule</title>
<polygon fill="#8dd3c7" stroke="black" points="2229.27,-122 2226.27,-126 2205.27,-126 2202.27,-122 2100.73,-122 2100.73,-86 2229.27,-86 2229.27,-122"/>
<text text-anchor="middle" x="2165" y="-99.8" font-family="Times,serif" font-size="14.00">AppRoutingModule</text>
</g>
<!-- AppRoutingModule&#45;&gt;AppModule -->
<g id="edge10" class="edge">
<title>AppRoutingModule&#45;&gt;AppModule</title>
<path fill="none" stroke="black" d="M2165,-122.32C2165,-145.66 2165,-183 2165,-183 2165,-183 1253.69,-183 1253.69,-183"/>
<polygon fill="black" stroke="black" points="1253.69,-179.5 1243.69,-183 1253.69,-186.5 1253.69,-179.5"/>
</g>
<!-- FooterModule -->
<g id="node12" class="node">
<title>FooterModule</title>
<polygon fill="#8dd3c7" stroke="black" points="2083.1,-122 2080.1,-126 2059.1,-126 2056.1,-122 1986.9,-122 1986.9,-86 2083.1,-86 2083.1,-122"/>
<text text-anchor="middle" x="2035" y="-99.8" font-family="Times,serif" font-size="14.00">FooterModule</text>
</g>
<!-- FooterModule&#45;&gt;AppModule -->
<g id="edge11" class="edge">
<title>FooterModule&#45;&gt;AppModule</title>
<path fill="none" stroke="black" d="M2035,-122.29C2035,-144.21 2035,-178 2035,-178 2035,-178 1253.88,-178 1253.88,-178"/>
<polygon fill="black" stroke="black" points="1253.88,-174.5 1243.88,-178 1253.88,-181.5 1253.88,-174.5"/>
</g>
<!-- FormulariosModule -->
<g id="node13" class="node">
<title>FormulariosModule</title>
<polygon fill="#8dd3c7" stroke="black" points="1968.98,-122 1965.98,-126 1944.98,-126 1941.98,-122 1841.02,-122 1841.02,-86 1968.98,-86 1968.98,-122"/>
<text text-anchor="middle" x="1905" y="-99.8" font-family="Times,serif" font-size="14.00">FormulariosModule</text>
</g>
<!-- FormulariosModule&#45;&gt;AppModule -->
<g id="edge12" class="edge">
<title>FormulariosModule&#45;&gt;AppModule</title>
<path fill="none" stroke="black" d="M1905,-122.03C1905,-142.77 1905,-174 1905,-174 1905,-174 1253.87,-174 1253.87,-174"/>
<polygon fill="black" stroke="black" points="1253.87,-170.5 1243.87,-174 1253.87,-177.5 1253.87,-170.5"/>
</g>
<!-- HeaderLoggedModule -->
<g id="node14" class="node">
<title>HeaderLoggedModule</title>
<polygon fill="#8dd3c7" stroke="black" points="1823.23,-122 1820.23,-126 1799.23,-126 1796.23,-122 1680.77,-122 1680.77,-86 1823.23,-86 1823.23,-122"/>
<text text-anchor="middle" x="1752" y="-99.8" font-family="Times,serif" font-size="14.00">HeaderLoggedModule</text>
</g>
<!-- HeaderLoggedModule&#45;&gt;AppModule -->
<g id="edge13" class="edge">
<title>HeaderLoggedModule&#45;&gt;AppModule</title>
<path fill="none" stroke="black" d="M1752,-122.11C1752,-141.34 1752,-169 1752,-169 1752,-169 1253.79,-169 1253.79,-169"/>
<polygon fill="black" stroke="black" points="1253.79,-165.5 1243.79,-169 1253.79,-172.5 1253.79,-165.5"/>
</g>
<!-- HeaderModule -->
<g id="node15" class="node">
<title>HeaderModule</title>
<polygon fill="#8dd3c7" stroke="black" points="1662.96,-122 1659.96,-126 1638.96,-126 1635.96,-122 1563.04,-122 1563.04,-86 1662.96,-86 1662.96,-122"/>
<text text-anchor="middle" x="1613" y="-99.8" font-family="Times,serif" font-size="14.00">HeaderModule</text>
</g>
<!-- HeaderModule&#45;&gt;AppModule -->
<g id="edge14" class="edge">
<title>HeaderModule&#45;&gt;AppModule</title>
<path fill="none" stroke="black" d="M1613,-122.3C1613,-140.27 1613,-165 1613,-165 1613,-165 1253.67,-165 1253.67,-165"/>
<polygon fill="black" stroke="black" points="1253.67,-161.5 1243.67,-165 1253.67,-168.5 1253.67,-161.5"/>
</g>
<!-- OrdenTrabajoModule -->
<g id="node16" class="node">
<title>OrdenTrabajoModule</title>
<polygon fill="#8dd3c7" stroke="black" points="1545.06,-122 1542.06,-126 1521.06,-126 1518.06,-122 1406.94,-122 1406.94,-86 1545.06,-86 1545.06,-122"/>
<text text-anchor="middle" x="1476" y="-99.8" font-family="Times,serif" font-size="14.00">OrdenTrabajoModule</text>
</g>
<!-- OrdenTrabajoModule&#45;&gt;AppModule -->
<g id="edge15" class="edge">
<title>OrdenTrabajoModule&#45;&gt;AppModule</title>
<path fill="none" stroke="black" d="M1476,-122.03C1476,-138.4 1476,-160 1476,-160 1476,-160 1253.91,-160 1253.91,-160"/>
<polygon fill="black" stroke="black" points="1253.91,-156.5 1243.91,-160 1253.91,-163.5 1253.91,-156.5"/>
</g>
</g>
</svg>
